<?xml version="1.0" standalone="no"?>
<!DOCTYPE svg PUBLIC "-//W3C//DTD SVG 1.1//EN" "http://www.w3.org/Graphics/SVG/1.1/DTD/svg11.dtd">
<svg xmlns="http://www.w3.org/2000/svg">
<metadata>Copyright (C) 2020 by original authors @ fontello.com</metadata>
<defs>
<font id="fontello" horiz-adv-x="1000" >
<font-face font-family="fontello" font-weight="400" font-stretch="normal" units-per-em="1000" ascent="850" descent="-150" />
<missing-glyph horiz-adv-x="1000" />
<glyph glyph-name="complete" unicode="&#xe802;" d="M500 767c-230 0-417-187-417-417s187-417 417-417 417 187 417 417-187 417-417 417z m0-750c-184 0-333 149-333 333s149 333 333 333 333-149 333-333-149-333-333-333z m191 517l-274-274-108 107-59-59 167-166 333 333z" horiz-adv-x="1000" />

<glyph glyph-name="done-24px" unicode="&#xe803;" d="M0 850h1000v-1000h-1000z m375-675l-175 175-58-58 233-234 500 500-58 59-442-442z" horiz-adv-x="1000" />

<glyph glyph-name="down" unicode="&#xe804;" d="M350 430l-58-59 208-208 208 208-58 59-108-108 0 403-84 0 0-403z m525-455l0 750-250 0 0-83 167 0 0-584-584 0 0 584 167 0 0 83-250 0 0-750z" horiz-adv-x="1000" />

<glyph glyph-name="dropdown" unicode="&#xe805;" d="M922 373l-255-255-255 255-79-79 334-333 333 333z" horiz-adv-x="1000" />

<glyph glyph-name="enter" unicode="&#xe806;" d="M420 200l59-58 209 208-209 208-59-58 108-108h-403v-84h403l-108-108z m455 525h-750v-250h83v167h584v-584h-584v167h-83v-250h750v750z" horiz-adv-x="1000" />

<glyph glyph-name="event" unicode="&#xe807;" d="M708 350h-208v-208h208v208z m-41 458v-83h-334v83h-83v-83h-125v-750h750v750h-125v83h-83z m125-750h-584v459h584v-459z" horiz-adv-x="1000" />

<glyph glyph-name="eye" unicode="&#xe808;" d="M667 600c-278 0-515-173-611-417 96-244 333-416 611-416s515 172 611 416c-96 244-334 417-611 417z m0-694c-154 0-278 124-278 277s124 278 278 278 277-124 277-278-124-277-277-277z m0 444c-93 0-167-74-167-167s74-166 167-166 166 74 166 166-74 167-166 167z" horiz-adv-x="1000" />

<glyph glyph-name="flag" unicode="&#xe809;" d="M687 517l22-111h291v-334h-187l-22 111h-402v334h298m91 111h-500v-945h111v389h311l22-111h389v556h-311l-22 111z" horiz-adv-x="1000" />

<glyph glyph-name="grabber" unicode="&#xe80a;" d="M500 850l-145-137a22 22 0 0 1 0-32 24 24 0 0 1 33 0l89 86v-199h-477v-87h1000v87h-477v199l89-86a24 24 0 0 1 33 0 22 22 0 0 1 0 32l-145 137 0 0z m-500-456v-87h1000v87z m0-174v-87h477a1 1 0 0 0 0 0v-200l-89 86a24 24 0 0 1-33 0 22 22 0 0 1 0-32l145-137 0 0 0 0 145 137a21 21 0 0 1 0 32 24 24 0 0 1-33 0l-89-86v200a1 1 0 0 0 0 0h477v87z" horiz-adv-x="1000" />

<glyph glyph-name="hamburger" unicode="&#xe80b;" d="M167-150h1000v111h-1000v-111z m0 278h1000v111h-1000v-111z m0 389v-111h1000v111h-1000z" horiz-adv-x="1000" />

<glyph glyph-name="home" unicode="&#xe80c;" d="M667 534l277-250v-434h-111v333h-333v-333h-111v434l278 250m0 149l-556-500h167v-444h333v333h111v-333h334v444h166l-555 500z" horiz-adv-x="1000" />

<glyph glyph-name="hourglass" unicode="&#xe80d;" d="M792 568v199h-542v-199a167 167 0 0 1 49-118l101-100-101-100a169 169 0 0 1-49-118v-199h542v199a169 169 0 0 1-49 118l-101 100 101 100a167 167 0 0 1 49 118z m-459 115h375v-83h-375z m351-493a83 83 0 0 0 24-58v-115h-375v115a83 83 0 0 0 25 58l115 116 2 2h92l2-2z m-115 204l-2-2h-92l-2 2-115 116a51 51 0 0 0-6 7h338a51 51 0 0 0-6-7z" horiz-adv-x="1000" />

<glyph glyph-name="lock" unicode="&#xe80f;" d="M750 517h-42v83c0 115-93 208-208 208s-208-93-208-208v-83h-42c-46 0-83-38-83-84v-416c0-46 37-84 83-84h500c46 0 83 38 83 84v416c0 46-37 84-83 84z m-250-375c-46 0-83 37-83 83s37 83 83 83 83-37 83-83-37-83-83-83z m129 375h-258v83c0 71 58 129 129 129 71 0 129-58 129-129v-83z" horiz-adv-x="1000" />

<glyph glyph-name="mail" unicode="&#xe810;" d="M917 683h-833l-1-666h834v666z m-84-583h-666v417l333-209 333 209v-417z m-333 292l-333 208h666l-333-208z" horiz-adv-x="1000" />

<glyph glyph-name="minus" unicode="&#xe811;" d="M792 308h-584v84h584v-84z" horiz-adv-x="1000" />

<glyph glyph-name="note" unicode="&#xe812;" d="M708 433h-416v-83h416v83z m167 292h-125v83h-83v-83h-334v83h-83v-83h-125v-750h750v750z m-83-667h-584v459h584v-459z m-209 209h-291v-84h291v84z" horiz-adv-x="1000" />

<glyph glyph-name="people" unicode="&#xe813;" d="M375 350c80 0 146 65 146 146s-66 146-146 146-146-66-146-146 66-146 146-146z m0 208c35 0 63-28 63-62s-28-63-63-63-62 28-62 63 27 62 62 62z m0-281c-97 0-292-49-292-146v-73h584v73c0 97-194 146-292 146z m-194-135c35 24 119 52 194 52s159-28 194-52h-388z m487 133c49-35 82-82 82-144v-73h167v73c0 84-146 132-249 144z m-43 75c80 0 146 65 146 146s-66 146-146 146c-22 0-43-6-62-15 26-37 41-82 41-131s-15-94-41-131c19-10 40-15 62-15z" horiz-adv-x="1000" />

<glyph glyph-name="plus" unicode="&#xe814;" d="M792 308h-250v-250h-84v250h-250v84h250v250h84v-250h250v-84z" horiz-adv-x="1000" />

<glyph glyph-name="power" unicode="&#xe815;" d="M722 683h-111v-555h111v555z m269-120l-79-79c87-71 144-179 144-301 0-215-174-389-389-389s-389 174-389 389c0 122 56 230 143 301l-78 79c-108-92-176-227-176-380 0-276 224-500 500-500s500 224 500 500c0 153-69 288-176 380z" horiz-adv-x="1000" />

<glyph glyph-name="refresh" unicode="&#xe816;" d="M981 497c-81 81-192 131-314 131-246 0-444-199-444-445s198-444 444-444c207 0 380 142 429 333h-115c-46-129-169-222-314-222-184 0-334 149-334 333s150 334 334 334c92 0 174-39 234-99l-179-179h389v389l-130-131z" horiz-adv-x="1000" />

<glyph glyph-name="send" unicode="&#xe818;" d="M84-25l874 375-874 375-1-292 625-83-625-83z" horiz-adv-x="1000" />

<glyph glyph-name="setting" unicode="&#xe819;" d="M1079 129c3 18 4 35 4 54 0 19-1 37-4 55l118 91c10 9 13 24 6 36l-111 192c-5 9-14 14-24 14-4 0-7 0-10-2l-138-55c-29 22-60 40-94 54l-21 148c-2 13-13 23-27 23h-222c-14 0-26-10-28-23l-21-148c-34-14-65-32-94-54l-138 55c-3 2-7 2-10 2-9 0-19-5-24-14l-111-192c-7-12-4-27 7-36l117-91c-2-18-4-36-4-55 0-18 2-36 4-54l-117-92c-11-8-14-23-7-35l111-193c5-8 15-13 25-13 3 0 6 0 9 1l138 56c29-22 60-41 94-55l21-147c2-13 14-23 28-23h222c14 0 25 10 27 23l21 147c34 14 65 33 94 55l138-56c4-1 7-1 10-1 10 0 19 5 24 13l111 193c7 12 4 27-6 35l-118 92z m-110 95c3-17 3-29 3-41 0-11-1-24-3-40l-7-63 49-39 60-47-39-67-70 29-58 23-50-38c-24-18-47-31-70-40l-58-24-9-63-11-75h-78l-11 75-9 63-59 24c-23 10-46 22-68 39l-50 39-59-24-71-28-39 67 60 47 50 38-8 63c-2 17-3 30-3 41s1 24 3 41l8 63-50 39-60 46 39 67 71-28 57-23 50 38c24 17 47 31 70 40l59 24 9 63 11 75h77l11-75 8-63 59-24c24-10 46-23 69-39l50-39 59 24 71 28 39-67-60-47-49-39 7-63z m-302 182c-123 0-223-100-223-223s100-222 223-222 222 100 222 222-100 223-222 223z m0-334c-61 0-111 50-111 111s50 111 111 111 111-50 111-111-50-111-111-111z" horiz-adv-x="1000" />

<glyph glyph-name="trash" unicode="&#xe81b;" d="M250-25h500v583h-500v-583z m83 500h334v-417h-334v417z m313 208l-42 42h-208l-42-42h-146v-83h584v83h-146z" horiz-adv-x="1000" />

<glyph glyph-name="up" unicode="&#xe81c;" d="M650 270l58 59-208 209-208-209 58-59 108 108 0-403 84 0 0 403z m-525 455l0-750 250 0 0 83-167 0 0 584 584 0 0-584-167 0 0-83 250 0 0 750z" horiz-adv-x="1000" />

<glyph glyph-name="user" unicode="&#xe81d;" d="M667 739c-307 0-556-249-556-556s249-555 556-555 555 249 555 555-249 556-555 556z m-274-905c24 50 169 99 274 99s250-49 274-99c-76-60-171-95-274-95s-199 35-274 95z m627 81c-79 97-272 129-353 129s-274-32-354-129c-56 74-91 167-91 268 0 245 200 445 445 445s444-200 444-445c0-101-34-194-91-268z m-353 602c-108 0-195-87-195-195s87-194 195-194 194 86 194 194-87 195-194 195z m0-278c-46 0-84 37-84 83s38 84 84 84 83-38 83-84-37-83-83-83z" horiz-adv-x="1000" />

<glyph glyph-name="add" unicode="&#xe81e;" d="M542 558h-84v-166h-166v-84h166v-166h84v166h166v84h-166v166z m-42 209c-230 0-417-187-417-417s187-417 417-417 417 187 417 417-187 417-417 417z m0-750c-184 0-333 149-333 333s149 333 333 333 333-149 333-333-149-333-333-333z" horiz-adv-x="1000" />

<glyph glyph-name="cancel" unicode="&#xe81f;" d="M677 469l-59 59-118-120-119 120-57-59 119-119-119-119 58-57 118 117 118-117 59 57-120 119z m-177 298a417 417 0 1 1 417-417 417 417 0 0 1-417 417z m0-750a333 333 0 1 0 333 333 334 334 0 0 0-333-333z" horiz-adv-x="1000" />

<glyph glyph-name="search" unicode="&#xe820;" d="M861 72h-44l-15 15c54 64 87 146 87 235 0 200-162 361-361 361s-361-161-361-361 161-361 361-361c89 0 171 33 235 87l15-15v-44l278-277 82 82-277 278z m-333 0c-139 0-250 112-250 250s111 250 250 250 250-111 250-250-112-250-250-250z" horiz-adv-x="1000" />
</font>
</defs>
</svg>
